<?xml version="1.0" standalone="no"?>
<!DOCTYPE svg PUBLIC "-//W3C//DTD SVG 20010904//EN"
 "http://www.w3.org/TR/2001/REC-SVG-20010904/DTD/svg10.dtd">
<svg version="1.0" xmlns="http://www.w3.org/2000/svg"
 width="293.000000pt" height="293.000000pt" viewBox="0 0 293.000000 293.000000"
 preserveAspectRatio="xMidYMid meet">
<metadata>
Created by potrace 1.14, written by Peter Selinger 2001-2017
</metadata>
<g transform="translate(0.000000,293.000000) scale(0.100000,-0.100000)"
fill="#000000" stroke="none">
<path d="M1210 2915 c-517 -88 -941 -438 -1124 -929 -116 -308 -116 -684 0
-992 149 -398 460 -709 858 -858 261 -98 585 -114 862 -42 447 116 823 458
988 900 116 308 116 684 0 992 -185 495 -610 844 -1134 930 -104 17 -347 16
-450 -1z m457 -31 c318 -50 626 -220 835 -460 365 -420 454 -1019 226 -1518
-232 -507 -731 -828 -1288 -828 -409 0 -799 176 -1062 478 -321 369 -429 867
-292 1341 69 238 231 491 420 655 322 280 738 399 1161 332z"/>
<path d="M675 2070 c-55 -4 -121 -8 -147 -9 l-48 -1 0 -590 0 -590 135 0 135
0 0 210 0 210 68 -1 67 0 102 -210 102 -209 147 0 c132 0 146 2 140 17 -6 14
-178 317 -228 400 l-19 32 44 21 c159 75 227 244 182 454 -26 125 -97 203
-226 247 -52 18 -90 22 -209 24 -80 2 -190 -1 -245 -5z m359 -220 c36 -13 47
-42 53 -129 5 -91 -12 -156 -47 -182 -33 -25 -100 -33 -204 -24 l-86 7 0 169
0 169 129 0 c71 0 141 -4 155 -10z"/>
<path d="M1795 2069 c-60 -5 -120 -10 -133 -11 l-23 -3 1 -579 c0 -319 3 -582
5 -585 10 -9 275 -30 395 -30 181 -1 278 28 356 106 58 58 86 131 92 238 8
155 -18 204 -156 291 -2 1 15 20 39 41 60 55 89 121 89 209 0 133 -46 222
-146 280 -87 51 -242 64 -519 43z m318 -210 c20 -5 44 -20 52 -33 36 -55 26
-180 -18 -211 -16 -11 -49 -15 -134 -15 l-113 0 0 129 0 130 33 4 c66 8 143 7
180 -4z m39 -496 c44 -26 58 -56 58 -131 0 -70 -19 -125 -48 -141 -22 -12 -86
-16 -184 -13 l-68 2 0 156 0 157 105 -5 c77 -4 113 -11 137 -25z"/>
</g>
</svg>
